<svg width="12.000000" height="15.000000" viewBox="0 0 12 15" fill="none" xmlns="http://www.w3.org/2000/svg" xmlns:xlink="http://www.w3.org/1999/xlink">
	<desc>
			Created with Pixso.
	</desc>
	<defs>
		<clipPath id="clip21_340">
			<rect id="bookmark 1" rx="-0.500000" width="11.000000" height="14.000000" transform="matrix(-1 0 0 1 12.5 0.5)" fill="white" fill-opacity="0"/>
		</clipPath>
	</defs>
	<rect id="bookmark 1" rx="-0.500000" width="11.000000" height="14.000000" transform="matrix(-1 0 0 1 12.5 0.5)" fill="#FFFFFF" fill-opacity="0"/>
	<g clip-path="url(#clip21_340)">
		<path id="Vector" d="M1.5 0L10.5 0C11.32 0 12 0.62 12 1.4L12 15L6 11.71L0 15L0 1.4C0 0.62 0.67 0 1.5 0ZM1 13.36L6 10.63L11 13.36L11 1.4C11 1.14 10.77 0.93 10.5 0.93L1.5 0.93C1.22 0.93 1 1.14 1 1.4L1 13.36Z" fill="#000000" fill-opacity="1.000000" fill-rule="nonzero"/>
	</g>
</svg>
