<svg width="18.999756" height="17.000557" viewBox="0 0 18.9998 17.0006" fill="none" xmlns="http://www.w3.org/2000/svg" xmlns:xlink="http://www.w3.org/1999/xlink">
	<desc>
			Created with Pixso.
	</desc>
	<defs/>
	<path id="Vector" d="M18.91 7.3L10.24 0.26C10.03 0.09 9.77 0 9.5 0C9.22 0 8.96 0.09 8.75 0.26L0.08 7.3C0.06 7.32 0.04 7.34 0.02 7.36C0.01 7.39 0 7.42 0 7.45C-0.01 7.48 0 7.51 0 7.54C0.01 7.56 0.03 7.59 0.05 7.61L0.51 8.19C0.53 8.22 0.56 8.24 0.58 8.25C0.61 8.26 0.64 8.27 0.67 8.28C0.69 8.28 0.72 8.28 0.75 8.27C0.78 8.26 0.81 8.25 0.83 8.23L2.11 7.19L2.11 16.46C2.11 16.61 2.16 16.74 2.26 16.84C2.36 16.94 2.49 17 2.63 17L16.36 17C16.5 17 16.63 16.94 16.73 16.84C16.83 16.74 16.88 16.61 16.88 16.46L16.88 7.19L18.16 8.23C18.21 8.27 18.27 8.29 18.33 8.28C18.39 8.28 18.44 8.25 18.48 8.2L18.95 7.62C18.98 7.57 19 7.51 18.99 7.45C18.99 7.39 18.96 7.34 18.91 7.3ZM7.91 15.93L7.91 10.62L11.08 10.62L11.08 15.93L7.91 15.93ZM15.83 15.93L12.13 15.93L12.13 10.09C12.13 9.95 12.08 9.81 11.98 9.71C11.88 9.61 11.75 9.56 11.61 9.56L7.38 9.56C7.24 9.56 7.11 9.61 7.01 9.71C6.91 9.81 6.86 9.95 6.86 10.09L6.86 15.93L3.16 15.93L3.16 6.33L9.35 1.31C9.39 1.28 9.44 1.26 9.49 1.26C9.54 1.26 9.59 1.28 9.63 1.31L15.83 6.34L15.83 15.93Z" fill="#000000" fill-opacity="1.000000" fill-rule="nonzero"/>
</svg>
