<svg width="17.437500" height="17.437500" viewBox="0 0 17.4375 17.4375" fill="none" xmlns="http://www.w3.org/2000/svg" xmlns:xlink="http://www.w3.org/1999/xlink">
	<desc>
			Created with Pixso.
	</desc>
	<defs/>
	<path id="Vector" d="M17.43 8.71C17.43 3.9 13.53 0 8.71 0C3.9 0 0 3.9 0 8.71C0 13.53 3.9 17.43 8.71 17.43C13.53 17.43 17.43 13.53 17.43 8.71ZM8.71 16.31C4.54 16.31 1.12 12.93 1.12 8.71C1.12 4.54 4.5 1.12 8.71 1.12C12.89 1.12 16.31 4.5 16.31 8.71C16.31 12.89 12.93 16.31 8.71 16.31ZM9.84 12.09L6.46 8.71L9.84 5.34L9.84 12.09ZM10.96 5.34C10.96 4.34 9.75 3.83 9.04 4.54L5.67 7.92C5.23 8.36 5.23 9.07 5.67 9.51L9.04 12.89C9.75 13.59 10.96 13.09 10.96 12.09L10.96 5.34Z" fill="#C4C4C4" fill-opacity="1.000000" fill-rule="nonzero"/>
</svg>
