<svg width="15.000000" height="14.875000" viewBox="0 0 15 14.875" fill="none" xmlns="http://www.w3.org/2000/svg" xmlns:xlink="http://www.w3.org/1999/xlink">
	<desc>
			Created with Pixso.
	</desc>
	<defs/>
	<path id="Vector" d="M8.84 7.26L6.43 6.59C6.03 6.47 5.74 6.11 5.74 5.7C5.74 5.19 6.17 4.78 6.7 4.78L8.2 4.78C8.58 4.78 8.94 4.9 9.23 5.11C9.34 5.19 9.48 5.18 9.58 5.09L9.96 4.7C10.07 4.59 10.06 4.4 9.93 4.3C9.44 3.92 8.84 3.71 8.2 3.71L8.03 3.71L8.03 2.38C8.03 2.24 7.91 2.12 7.76 2.12L7.23 2.12C7.08 2.12 6.96 2.24 6.96 2.38L6.96 3.71L6.7 3.71C5.58 3.71 4.67 4.6 4.67 5.7C4.67 6.58 5.28 7.36 6.14 7.61L8.55 8.28C8.96 8.39 9.24 8.75 9.24 9.16C9.24 9.67 8.81 10.09 8.29 10.09L6.78 10.09C6.41 10.09 6.05 9.97 5.76 9.75C5.65 9.67 5.5 9.68 5.41 9.78L5.03 10.16C4.92 10.27 4.93 10.46 5.06 10.56C5.55 10.94 6.15 11.15 6.79 11.15L6.96 11.15L6.96 12.48C6.96 12.63 7.08 12.75 7.23 12.75L7.76 12.75C7.91 12.75 8.03 12.63 8.03 12.48L8.03 11.15L8.29 11.15C9.41 11.15 10.32 10.26 10.32 9.17C10.31 8.28 9.71 7.5 8.84 7.26ZM13.39 0L1.6 0C0.71 0 0 0.71 0 1.59L0 13.28C0 14.16 0.71 14.87 1.6 14.87L13.39 14.87C14.28 14.87 15 14.16 15 13.28L15 1.59C15 0.71 14.28 0 13.39 0ZM13.92 13.28C13.92 13.57 13.68 13.81 13.39 13.81L1.6 13.81C1.31 13.81 1.07 13.57 1.07 13.28L1.07 1.59C1.07 1.3 1.31 1.06 1.6 1.06L13.39 1.06C13.68 1.06 13.92 1.3 13.92 1.59L13.92 13.28Z" fill="#000000" fill-opacity="1.000000" fill-rule="nonzero"/>
</svg>
