<svg width="13.000000" height="17.000000" viewBox="0 0 13 17" fill="none" xmlns="http://www.w3.org/2000/svg" xmlns:xlink="http://www.w3.org/1999/xlink">
	<desc>
			Created with Pixso.
	</desc>
	<defs/>
	<path id="Vector" d="M4.6 10.62L4.06 10.62C3.91 10.62 3.79 10.74 3.79 10.89L3.79 14.07C3.79 14.22 3.91 14.34 4.06 14.34L4.6 14.34C4.75 14.34 4.87 14.22 4.87 14.07L4.87 10.89C4.87 10.74 4.75 10.62 4.6 10.62ZM6.77 7.43L6.22 7.43C6.08 7.43 5.95 7.55 5.95 7.7L5.95 14.07C5.95 14.22 6.08 14.34 6.22 14.34L6.77 14.34C6.91 14.34 7.04 14.22 7.04 14.07L7.04 7.7C7.04 7.55 6.91 7.43 6.77 7.43ZM8.12 9.82L8.12 14.07C8.12 14.22 8.24 14.34 8.39 14.34L8.93 14.34C9.08 14.34 9.2 14.22 9.2 14.07L9.2 9.82C9.2 9.68 9.08 9.56 8.93 9.56L8.39 9.56C8.24 9.56 8.12 9.68 8.12 9.82ZM12.52 3.25L9.68 0.46C9.37 0.16 8.96 0 8.53 0L1.62 0C0.72 0 0 0.71 0 1.59L0 15.4C0 16.28 0.72 17 1.62 17L11.37 17C12.27 17 13 16.28 13 15.4L13 4.38C13 3.96 12.82 3.55 12.52 3.25ZM8.66 1.08C8.76 1.1 8.84 1.15 8.91 1.22L11.75 4C11.82 4.07 11.87 4.15 11.9 4.25L8.66 4.25L8.66 1.08ZM11.91 15.4C11.91 15.69 11.67 15.93 11.37 15.93L1.62 15.93C1.32 15.93 1.08 15.69 1.08 15.4L1.08 1.59C1.08 1.3 1.32 1.06 1.62 1.06L7.58 1.06L7.58 4.51C7.58 4.95 7.94 5.31 8.39 5.31L11.91 5.31L11.91 15.4Z" fill="#000000" fill-opacity="1.000000" fill-rule="nonzero"/>
</svg>
