<svg width="15.000000" height="14.875000" viewBox="0 0 15 14.875" fill="none" xmlns="http://www.w3.org/2000/svg" xmlns:xlink="http://www.w3.org/1999/xlink">
	<desc>
			Created with Pixso.
	</desc>
	<defs/>
	<path id="Vector" d="M13.39 0L1.6 0C0.71 0 0 0.71 0 1.59L0 13.28C0 14.16 0.71 14.87 1.6 14.87L13.39 14.87C14.28 14.87 15 14.16 15 13.28L15 1.59C15 0.71 14.28 0 13.39 0ZM13.92 13.28C13.92 13.57 13.68 13.81 13.39 13.81L1.6 13.81C1.31 13.81 1.07 13.57 1.07 13.28L1.07 1.59C1.07 1.3 1.31 1.06 1.6 1.06L13.39 1.06C13.68 1.06 13.92 1.3 13.92 1.59L13.92 13.28ZM6.69 4.25L5.35 4.25L5.35 3.18C5.35 2.96 5.17 2.78 4.95 2.78L4.68 2.78C4.46 2.78 4.28 2.96 4.28 3.18L4.28 4.25L2.94 4.25C2.5 4.25 2.14 4.6 2.14 5.04L2.14 6.64C2.14 7.07 2.5 7.43 2.94 7.43L4.28 7.43L4.28 11.28C4.28 11.5 4.46 11.68 4.68 11.68L4.95 11.68C5.17 11.68 5.35 11.5 5.35 11.28L5.35 7.43L6.69 7.43C7.13 7.43 7.5 7.07 7.5 6.64L7.5 5.04C7.5 4.6 7.13 4.25 6.69 4.25ZM6.42 6.37L3.21 6.37L3.21 5.31L6.42 5.31L6.42 6.37ZM12.05 7.43L10.71 7.43L10.71 3.18C10.71 2.96 10.53 2.78 10.31 2.78L10.04 2.78C9.82 2.78 9.64 2.96 9.64 3.18L9.64 7.43L8.3 7.43C7.86 7.43 7.5 7.79 7.5 8.23L7.5 9.82C7.5 10.26 7.86 10.62 8.3 10.62L9.64 10.62L9.64 11.28C9.64 11.5 9.82 11.68 10.04 11.68L10.31 11.68C10.53 11.68 10.71 11.5 10.71 11.28L10.71 10.62L12.05 10.62C12.49 10.62 12.85 10.26 12.85 9.82L12.85 8.23C12.85 7.79 12.49 7.43 12.05 7.43ZM11.78 9.56L8.57 9.56L8.57 8.5L11.78 8.5L11.78 9.56Z" fill="#000000" fill-opacity="1.000000" fill-rule="nonzero"/>
</svg>
